# xmcd
#
# Track frame offsets: 
#        183
#        20818
#        35180
#        53595
#        67625
#        82900
#        98258
#        111708
#        129875
#        139113
#
# Disc length: 2255 seconds
#
# Revision: 3
# Processed by: cddbd v1.5.2PL0 Copyright (c) Steve Scherf et al.
# Submitted via: ExactAudioCopy v1.0b3
#
DISCID=7b08cd0a
DTITLE=Neil Young - Harvest
DYEAR=1972
DGENRE=Folk
TTITLE0=Out on the Weekend (4:35)
TTITLE1=Harvest (3:11)
TTITLE2=Man Needs a Maid (4:05)
TTITLE3=Heart of Gold (3:07)
TTITLE4=Are You Ready for the Country (3:23)
TTITLE5=Old Man (3:24)
TTITLE6=There's a World (2:59)
TTITLE7=Alabama (4:02)
TTITLE8=Needle and the Damage Done (2:03)
TTITLE9=Words (Between the Lines of Age) (6:40)
EXTD=
EXTT0=
EXTT1=
EXTT2=
EXTT3=
EXTT4=
EXTT5=
EXTT6=
EXTT7=
EXTT8=
EXTT9=
PLAYORDER=
